    <svg viewBox="0 0 2048 2048" xmlns="http://www.w3.org/2000/svg">
        <defs>
            <linearGradient id="logoGradient" x1="0%" y1="0%" x2="0%" y2="100%">
                <stop offset="0%" stop-color="#E8E8E8"/> 
                <stop offset="100%" stop-color="#171818"/> 
            </linearGradient>
        </defs>

        <g fill="url(#logoGradient)">
        <path transform="translate(641,333)" d="m0 0 9 1 7-1h13l12 4 7 4 6 4h7l6 4 18-2 34-2 5-1h13l17 4 9 1h13l12-4 8-1h12l3 2 1 7 9 2h9l13 3 21 6 11 3 5 5 3 1 2-6h2v-2l7-1h2v-8l3-8h8l6 2 18 1 8 9v2h3l2-7 5-1h4l4-6 1-1h7l9 5 10 9 3 5 3 12 2 4 1 8 2 3 3 10 4 13 5 4-1 5-2 2-1 7 1 7 6-1 1 4-2 13-9 21v9l5 6v4l-4 2-1 2 1 13 2 3 3 19 2 8 2 5v10l-1 9 4 12v9l-3 24 3 1v8l-3 18v8l9 24v6l-3 4 5 1 1 2v9l3 19v12l-4 18-4 8-4 13-2 10-3 4 1 51 2 25-1 16-3 19v24l4 16 1 6v19l-4 4-3 1-2 11v15l-7 39-2 10-7 13-5 5-3 1-15-1-7-2h-6l-10 5-13 4-14 1h-9l-8 3h-12l-5-2-2 5-6 8-1 3-6-1-9-4-6-1-3-3v-2l-14-2-4-2-8-1v-2l-9-3-10-2-12-2-34 2-3 5h-5l-2-4-18 4-28 2h-8l-5 5-4-1-1-4-9 3-20 4h-5l-1 3-7-1-13-3-8-1-15 1h-20l-5 5-5-1v-2l-26 5-10 3-4 1v2h-2l-2 6-6-3-1-3-6-2v2l-5-2-3-3-3-1h-7l-5 1-3-1v-3l-9 1-3-2-9-1-13-1h-24l-22-1-7-1-5 5-6-1-2-3h-6l-3-4v-4h-2v-2h-7l-7 1-9-1-7-3-4 1-19 7-4 1h-23l-2-6-5 1-8-7-4-5v-2h-2l-3-5-1-4v-14l-6-13-3-8v-18l-9-7-5-4-1-6 4-7 1-9 3-3h2l2-16 6-14 2-5 3-17v-14l-1-32-6-5 2-4 3-1-4-18v-41l-5-5 1-4 3-3-2-12-4-15-3-6 2-19v-16l-1-27v-7l-6-5 1-5 2-3-2-9-6-24-9-19 1-4 6-5 2-6 1-7 5-4 2-15 4-12 2-3 4-20v-13l-1-25v-8l-4-1-2-4 2-3h2v-9l9-7v-7l-1-6 4-28 5-21 3-3 7-1 1-1 2-11 3-4 9 1 10 2h10l4 1 7-10 5-5 10-3 1-2h7l16-8 7-1 2-4h4l1 4 4 1 5-3 3-5h12l6 4 7 4 3 2h10l3-4 5 1 1 4 5 1 7-1v-2l18-3 10-4h10l3 1 7-2 5-2 10 1 7 1 1 1h7l1-2 10 1 12 3 7-1 18-6 6-1 2 2 4 1v-5zm401 97m-276 44-13 1-4 1-1 5-6-1-2-3-5 1-16 4h-23v2l-3 1-1 2h-3l-3-3-27 7-6 1-16-3h-20l-7 1-6-1-3 1-1 6-3-1-1-2h-2v-2l-10 3-8 1-10 3-15 9-8-8-4-1h-3l-6-7-4-1-3 1-6-1v-2l-8-3-3-3-8-1-7-2h-34l-5 5-3 1-2-4-4 1-5 11-2 4v13l3 2 1 7-4 1-1 2v10l3 5 3 21 3 8 2 3-1 6 1 5-1 9 4 12-1 10-2 19 3 2v7l-4 20 1 8 4 10 5 13-2 8 4 2 2 23 1 5v12l-3 16-5 9-4 13-1 10h-2l-1 2v34l1 22 1 8v23l-3 17v26l3 4 12 1 6 5 7 4 7 3h3l4-4h2l3 5 5-2 2-2 11-3 11-4 4-3 9-1 4-1 1 1h6l16-6h17l15 2 3-2 14 2 15 3 10-4 15-4 7-1 1 2 5-1v-4l13 1 3-1h19l17 5 3 1v2l5 1h3v2l13 2 1 3 5-1 51-2 7-1h20l12 3 15 2h18l11-3 8-1h22l3-5v-6l4-6 4-22-1-40v-6l-6-2 1-7 3-2-3-15-1-9v-37l-4-3v-3l3-2-1-13-3-12-5-12 3-25-1-13-1-16v-18l-4-1-1-7 2-2-1-11-5-21-5-14-5-9-1-4 4-1 4-5 3-13 5-5 1-10v-5l1-5 2-8h2l3-9 3-18-1-10v-14l-2-3-7 3h-15l-6 4-10 4h-14l-7 11-3 4-4-2-3-3-6-1-4-2-2-5-3 1v-2h-9l-3-3-6-1-3-4-10-2-8-2z"/>
        <path transform="translate(1451,1100)" d="m0 0 8 1 10 4 5 4 2 1v2l8 1 2 4 5-2 21-2 16-1 4-1h12l10 3 7 1h13l12-4h15l2 2v5l6 3h9l18 6 7 3 10 4 7 7v2h3v-10l1-2 6-1 12 2h9l8 2 5 5 4 2 2-5h8l2-1 1-3 3-2 10 1 10 5 8 7 3 6 3 7 1 7 7 14 3 9 6 5-4 4h-2l3 9 5 3v8l-9 19-1 7 3 5 2 2v3l-5 3v10l4 3v9l3 12 2 3v18l4 10-1 10-1 6v8l2 2v7l-4 15 1 6 7 14 2 11 2 5 3 18v12l-4 14-6 14-3 11-3 3 1 7 1 39 2 11v10l-4 20v21l4 11 1 6v15l-2 2h-6l-1 6-1 7v9l-8 32-3 9-8 10-5 3-10 1-10-1-7-3h-10l-12 12-2 1-12-1-11 6-6 3-8-1-5-1-1 5-7 11-5-2v-2l-10-2-4-6-9-1-11-5-4-3-8-1-8-3-16 1h-15l-1 4-3 3-3-2-1-3-6 2-5 2-16 1h-14l-3 5-5 1-2-4-9 3-13 3-6 3-12-2-5-2h-28l-3-1-1 2-1-1-2 6-5-2v-2l-8 2-19 5-3 3-2 5-4-2-4-4-8-3-1-3-8 1-12-2-4-3-30-3-11 1-21-1-4 5-4-1-1-4-4 1-3-2-2-5v-3h-10l-14-4-11-4-6 1-8 2h-20l-1-3-10-2-11-11-3-5v-12l-3-6-6-11-1-9v-7l-11-6-4-3 1-4 4-6 1-6 5-5 4-16 5-11 3-14v-10l-1-11h-1v-7l2-6h-3v-3h-3l1-5 2-3-3-13-1-29-3-5 1-4 2-5-6-17-3-5 2-13 2-14h-2v-13l-1-17-5-3v-5l3-3-8-25-6-11-3-4 2-4 5-3 3-9 6-7 1-10 5-10 2-5 3-12v-12l-1-19 1-5h-3v-2l-4-1 1-4 2-1 2-9 7-3v-15l5-25 3-10 3-3 8-3 2-2 2-7 2-2 11 1 4 1 16 1 1-6 7-14 10-5h2v-2l7-2 4-3 13-5 2-5h3l2 6 5-2 3-2 1-6h3l1 2 8 3 10 7 7 1 5-5 2 1 1 5 10-2 3-2 11-2 9-4 12 1 5-3h9l10 1h3l1-1 10 1 8 3 6-1 12-5 6-1 3 2 1-5h10zm-298 133m387 6-16 1-3 1-2 6-2 1-2-6-2-1v2l-10 3-21 1-5 1-2 5-2 1-2-5-4 1-17 6-2 2-9-2-6-2h-28l-1 6-8-2-6 1-12 4-8 5-6 5-2-1-3-5-5-3-5-2-2-5-10-2-10-6-12-4-7-1-11 1-4 1h-7l-3 7v5l4 2 1 4-4 2-1 3v7l1 3 2 1 2 14 5 12v9l-1 1v6l3 5 1 7-2 14v6l2 2-1 10-3 14 4 10 5 11-1 6h3l4 26v10l-4 15-3 4-3 7-1 2-1 9-3 7 1 34 2 18v10l-4 21 1 8 8 5 2 4h5l2-3 3-1v4l7-1v-3l9-2 6-3 1-3 13-1h7l12-5h16l12 2 2-2h7l14 4 4-1 8-3 9-3 3-2 5 1 4 2v-6h28l12 4 9 6 1 2h7l6 5 5-2 44-3 12-1 22 5h18l11-4 4-1 13-1 2-13-1-37-5-4-2-4 5-2-3-14v-33l-4-4h-2l1-3 4-3-5-16-4-10v-8l2-10v-11l-2-28-4-4v-5l2-2-2-10-5-17-6-12-3-5-1-4 5-1 4-5 2-9 5-4 2-13 2-7 4-5 4-17v-9l-3-1-6 1-10 6-6 1h-7l-6 13v2l-5-2-6-4h-3l-3-6-9-1-4-3-5-2-3-3-14-4zm89 37 1 2zm0 93 1 2z"/>
        <path transform="translate(1232,351)" d="m0 0 28 4 7 3 5 3 4-2h10l3-2 9 1 13 5 7 6 7 14 5 8 6 2-1 3-6 1v3l5 2 2 2-1 5-9 7-1 2h-2l2 5 3 2v2l-6 1 1 6 3 10 3 4v11l3 5-1 5-2 3v4l2 1-2 7-3 4 2 5 4 6 2 7 2 4 1 16-12 16-2 3 1 21h6l4-3 5-1h8v2l9-2 6-3 18 2 6 1 3-3 14 2 5 1h8l5-3 15-5 5-1 5 2 2-4 21-1 6-1 9 3 8 3 5 3 7 3 6 1 2 1 1 3 4 1h14l33-2 5-1h18l14 3 8 1h17l9-3 7-1h16l2 4v4l8 2 17 2 16 5 22 7 9 7 7 8 1 5-2 10 6 9 4 8 4 2-1 4-3 2 1 6 5-1 1 1v8l-9 12-2 6 4 4-1 4-4 1v6l2 1v2h2l1 10 5 10v11l3 4v10l-2 9 2 1v9l-3 8 1 5 6 12 3 11 1 2 1 21-5 10-5 7-4 10-1 3 1 2 3 32 2 13-5 19v16l4 12v8l-2 5-8 3-3 17-12 27-8 8-4 3-8 1-16-4-5-2-9 1h-28l-12-3-2-2-11-4-9-9-1-4 1-2v-6l-7-9-1-7 1-5-12-6-2-2 1-4 4-5 2-4 2-1 3-10 6-9 4-13-1-24-6-2 2-4 2-1-1-4-2-4-1-6-1-20-5-1 1-4 4-1v-2h-2l-8-21v-5l3-8 1-5-1-3v-18h-2v-2h-2l-1-6 2-4-8-19-7-8 1-4 5-3 3-7 2-4 4-2 5-15-6-2h-38l-2 7-4-1-3-4-12 4-10 1h-23l-1 4-3 3h-3l-2-5-5 2-20 5-6 3-9-2-8-2h-20l-4 1h-11l-3 1-1 6-4-1-2-4-15 5-13 4-10 6-4 3h-3l-3-5-2-1v-2l-7-1-6-3-1-3-11-2-10-3v-2l-17-4-9-1-1 1-25 1-5 7-3-1-3-4-4 2-3-2-1-5-7-2-6 1-20-2-15-3-5-3-2-6 1-2-2-1v-1h-9l-2-2-1-8v-13l-1-10 3-6-1-7-3-5-10-4v-3h2l2-14 4-10 6-8 7-3 1-5-1-15-5-1 2-4-1-5-2-4-1-16-1-2-4-1v-3l3-2-2-5-5-12 1-7 2-3v-14l-1-6-4-4 1-4h2l-3-7-1-2 1-6-4-4-2-1 1-4 6-4 9-9 5-9h2l2-4 4-10v-13l-2-5-1-5 5-5 7-1v-8l4-10 5-8 5-4 7 1 2-1 2-5zm-56 128 1 2z"/>
        <path transform="translate(607,1200)" d="m0 0 11 1 14 4 18-4h22l16 6 7 4 8 9v13l6 8 3 6v7l-1 4 15 8-1 5-4 9-5 5-1 4-1 6-7 13-3 11 1 32 5 2v4h-3l3 9 2 5 2 17v11l5 1v4l-2 1 1 7 5 15 2 4v8l-2 9 1 31 4 2 2 5-4 2 8 23 8 12 1 4-6 4-2 9-4 3h-2l-1 11-4 5 5 1 7 3 15 3 2-1 21-2 2-5h4v3l4-1 6-3 12-2 14-1 3-5 4 1 1 2 21-7 1-1 13 1 5 2 14-1 13 1 2-6h3l1 2 8-1 13-4 11-7 2-2 4 1 3 6 10 5 1 4h7l11 6 3 3 10 3 2 1h13l15 1 1-4 4-1 2 3h5l2 5v5h10l15 4 14 7 2 3v8l-1 2h7l2 1-1 11-4 21-3 5-3 2 1 4 1 1v11l3 1 1 2-1 9-7 13-4 5-9 3-13 5-4 3-7 2-4 6-3-1-1-6-3 1-1 2h-2l-2 6-9-3-1-3h-3l-5-6-7-3-4 6-4-2-3-5h-4v3l-6 2-5-1-8 3-5 3-7-1-3-1-8 5-11-3-5-2v3l-6 1-3-2-9-3-5 1-5 3-10 5h-3l-2-3-2 5-14 1-5 2-12-5-3-2v-2l-9-3-4-1-4-4-3 2-29 4-10 3h-9l-10-3h-15l-13 6-4 1h-9l-1-1v-5l-7-2-5-1-5 1-10-2-8-3-12-2h-5l-6-4-3-3-3-1-2 5-9 1-5 5h-9l-11-4-8-6-5-12-5-11-6-12-5-3 1-4 3-1-1-6-3-3-4-1 1-9 9-15 1-5-5-6 1-3 4-3-1-7-4-13-3-8-3-5 1-13-5-10 3-17-3-6 4-18-1-5-5-11-3-7v-6l1-1h-3l-1-9-1-3v-17l6-14 5-8 2-8 2-2-2-13-3-30-1-5v-16l3-14v-15l-5-16-1-10 2-7 3-1h3l2-6v-9l4-15 7-23 6-8 5-5z"/>
        <path transform="translate(1794,127)" d="m0 0 7 2 11 6 3 3h8l4-5 3 1 2 5h7l6-3 16-3 3-2 12-1v2l20-3 2-1h15l26 3h5l4-3 8 1 27 6h7l8-2 31-3h9v6l-2 5v3l6 2 4 27 2 1v52l-3 1-2 16-1 5-1 15-3 4 2 8 4 44 2 17v11l-5 23v17l4 16v12l-2 3h-6l-3 10v7l-5 16-8 23-4 6-8 8-6 1-16-3-5-2-8 1-9 2-10 1h-12l-9-1-4-4-6-1-8-7-7-8-1-4 2-9-8-16-2-6 2-4v-5l-13-8-1-4 3-4 2-8 3-3 3-1 1-9 5-10 3-4 4-14v-17l-1-16-5-1 2-4 3-1-4-9-3-16-6-5-6-3 2-5v-2l-7 3-5 3-3 6-10-6v-4l-9-1-13-5-4-4h-5l-10-4-31 1-3 1-2 4-5-2v-2h-7l-4-6v-3l-10 1-25-5-13-4-3-5-2-8-8-2-1-1v-8l3-11 1-12 3-5 5-4v-3l-4-3v-9l-3-2-2-6 5-13 9-11 3-2 10-3 7-1 5-3 7-4 9-1 2-6 4 1 2 4h7l2-4z"/>
        <path transform="translate(138,119)" d="m0 0 5 1 5 4 9 4h6l5 4 1 2 10 2 10 4 3 2 19 4 5-1 16-1 6 1 1-5 5-1 5 3 5 1 3 6v2l7-1 16 1 15 3 11 4 3 5 1 6 10 2 1 1v21l1 10-3 6h-2l-1 5 4 4 2 9 5 4 1 6-5 14-6 8-24 10-10 5-6 1-2 6-5-1-1-3h-7l-2 5-2 4h-2l-2-2-5 1-7-4-14-6h-6l-2 5-4-1-2-2v-3h-7l-1 3-3-3-1 5h-9l-12 3-6 4h-8l-2 1h-7l3 6v3l-10-1 1 24 2 12 1 3v9l-4 18v18l5 14 1 13-1 5-1 1h-6l-1 14-1 10-7 25-4 12-6 8-6 6-5 1-13-2-7-3-8 1-15 3h-22l-6-2-1-3-5 1-8-5v-2l-4-2-5-5-1-6 1-6-4-8-5-9-1-2 1-12-7-2-9-6 1-4 3-5 2-6 5-5 2-11 4-9 3-9 2-10-1-18-1-12-1-3-4-2 1-4 2-2-1-6-2-4-1-6-1-44-4-5v-5l4-1-3-37-1-13v-10l8-27 1-13 6-2 31-3 3-5 3-1 5 2h8l15-4 24-5 19-7z"/>
        <path transform="translate(1988,1575)" d="m0 0h9l12 5 7 6 6 14 5 12 6 14 5 3-1 3-4 2 1 6 3 3 4 2-1 9-8 15-2 4v7l3 3v4l-5 2-1 10 4 1 1 3-1 4 3 11 2 3v16l4 10-3 15-1 9 4 2-1 13-3 21v9l2 8 1 24v12l-3 2h-3l2 5 1 1v6l-10 18-9 12-10 6-12 6-11 1-5 1-8 1-5 1h-7l-1-3-8 4-13 2-66 4-15 1-14-4-15-1-8 1-8 3-7 1h-13l-2-1 1-6-7-2-1-1h-12l-25-8-11-3-12-11-3-4 1-14 4-12-4-18v-23l6-17 9-10 3-3 7-1h9l10-7 3-1h8l5 1 2-6 6-10 4 1 4 3 7 2 2 3v3l11 1 9 4 6 3 14 4 26-2 2-2 7-3 6-3 1-9 1-4h3l-2-7-3-1-5-6-6-11-1-3h-2l1-5 5-2 3-6 2-5 5-5 2-10 3-7 4-5 4-13v-19h-1l1-7 1-3-3-1-3-3 1-5h2l1-7 7-3 1-18 5-21 3-6 1-1 10-1v-9l2-2h32l7 6 4-1 3-4h8l2-4z"/>
        <path transform="translate(340,1218)" d="m0 0h8l10 2 13 1 6 3 4 3v2l3-1 4-4h8l5-4 7 1 16 8 6 7 8 18 7 14 5 3v2l-5 3 1 4 2 1v2l4 1 1 4-3 7-7 11 1 7 2 1v5l-4 2 1 7 3 9 6 17-1 8 3 7 2 7-2 10 1 7 1 4-4 13 1 5 6 12 2 5-1 6 3 1 1 6 1 10 1 8-11 22-2 5-3 3 2 5 3 33 2 11v11l-5 22v12l4 13v13l-4 2-4 1-2 5-2 13-7 19-4 10-5 3-23 5-41 3-19 1h-11l-3-3-5-1-5-12 1-10-7-10-3-9 2-9-5-1-11-7 2-5 6-10 4-3 2-10 5-8 4-9 1-3v-30h-5v-4l2-1-2-7-3-19v-11l-4-2-1-5 2-2-1-5-7-20 2-12 1-3v-13l-1-16 1-2-5-1-1-4 3-1-8-24-6-9-3-4 2-4 5-4 3-8h2v-2h2l2-11 6-10 3-8 1-4v-29l-5-3-1-4 3-4 1-4 8-4v-11l4-20 4-9 2-3 10-1z"/>
        <path transform="translate(124,1557)" d="m0 0h7l14 5 7 6 6 10 2 6 9 14v2l6 2 1 4-5 1 2 6 7 3v7l-6 14-3 6 1 4 4 4-1 4-3 3 1 6 4 7 6 15 2 4v11l5 9v9l-1 12 3 1v8l-2 8v4l4 1 5-1v4l-7 9 10-3 5 3 11 2h8l12-4 13-1 4 2 1 6 6 2h9l25 7 11 4 7 5v2h2l4 7v12l-2 9 1 7 5 17 1 7v16l-2 5-2 9-9 12-5 3h-12l-6 5-8 4h-8l-3-1-9 15-1 2h-3l-5-5-8-2-5-5v-2l-9 1-6-4-2 1-6-5-8-2-10-3-11 1-10-1h-8l-6-1h-5l-2 4h-8l-2-3-9 1h-17l-15-4-10-4-8-4-3 2h-6l-1-5-2-4-8-7-7-8-9-13-1-10v-28l-4-30-1-11-5-3-1-3 4-5h-2l-9-21-8-10-2-4 5-4 2-3 2-7 4-5 2-10 5-13 2-10v-10l-3-13-1-4-4-6 2-10 6-4h2l-2-11 2-18 3-13 3-5 2-1h8v-8l1-3 2-1h32l7 5 3 1 2-5 10-1 2-4z"/>
        <path transform="translate(657,574)" d="m0 0 5 2 4 6 6 5v2l5-1 1-1 16-3 6-1 5 3 10 1 9-5 5 1 1 1v6l2 1v2l13-2 4-2 13 2 13 4 8 9 7 8v2l4 2 4 4-4 1 6 3-1 5-6 5-2 2-2 3 6 2v2l-5 2v2h2l4 8 3 4v7l4 6-2 8 1 4-2 10 10 11 2 9-1 6-6 8-8 9-1 10-1 1h-12l-2 10-7 61-2 7-5 2h-25l-4 4-5 1-3 13h-4l-6-9-5-5-22 1-3-2-2 1h-16l-1 5-3 1v-2l-5 2-6 5-4-1v-2l-5-1-10 1-2 5h-6l-8 6-3 9-3-3-8-16-6-8-4-1-3 2-6 2-2 3h-2l-3-9-10-4-8-7-4-10-4-5-5-16-5-7-5-3-3-5-14-2 1-3 11-7 7-6h2l-5-7-2-13v-5l-7-3v-3l1-6-3-10-7-7-9-2 1-3 17-9 7-4h2l-2-10-2-1 1-4 5-1 1-12-3-15v-10l4-17 15-15 2-5 3-1v3l3-1 2-6h5l4 6 2 1 2 3 3-5h2l2 5 3-1 1-2h2v-2l6-4 4-1 5-1 3-3 4 1v2l6-2 4-1 2 2h5l5-5 5-4z"/>
        <path transform="translate(979,1197)" d="m0 0h2l4 13 7 10 2 2 4-1 3-3 3 1 2 7 10 6 5 6 4 9 6 12 3 10 9 2 7 6 5 5 13 3v2l-10 6-5 5-5 3-2 5 2 5 6 9h7l1 3v9l4 6 5 5 6 3-2 2-14 5-8 5 1 6 2 4-6 2h-3l-2 5-4 2-1 7 1 10 2 7-3 19-4 8-7 8-6 7-4 7h-4l-6-8-4 1-3-4-5 5-4 1-1 4h-6l-3 3h-14l-4-2-6 7-6 3-8 2-4-2-9-12-15 3-5 2-5-1-5-3h-6l-5 4-4 2-3-3-1-7-9-4-8-7-8 1-2-1-8-1-10-3-4-4v-2h-2l-5-5-5-4-1-2-4 1-2-5-2-3 1-5 5-3h2v-5l-1-1-1-5 3-1-5-6-2-1-2-10-2-4 1-9 2-4h2l-1-3-8-7-3-2-2-7v-5l6-8 9-9-1-8 1-1 24 1 5-43 2-23 1-2 15-1 10-7 2-4 6-4 1-2 1-9h4l7 11 7 8 3 2h9l3-4 6 1 8-4h2l2-4 3 1 7-6 4 1 6 2 8-2 4-4 7-4zm-162 211 2 2v-2z"/>
        <path transform="translate(1447,1293)" d="m0 0 4 1 9 11 1 2 16-4 6-1 6 4h6l5-5 5-1 2 9 9 5 8 8 17 2 13 4 9 9 8 6 8 8-4 4-3 2h-3l2 5-2 3 1 4 6 8 2 7 1 1v14l-2 4 11 10-7 16-5 4h-2l-2 5-3 3 1 5-1 1h-26l-3 22-4 40-1 2h-13l-3 5-6 4-5 6-4 4-1 12h-2l-10-15-6-7-6-1-8 3-6 4-4 2-2 3h-6l-4 3-1 3h-6l-1-3-10 1-10 7h-2v2h-2l-2 9h-2l-6-16-6-10h-3l-3 4h-2l-3-9-8-4-6-7-4-10-3-5-4-16-12-1-4-5-7-3-2-2-3-1-9-1 2-4 4-3 6-3 9-7v-6l1-2h-2v2h-2l-1-11-3-1h-6l-2-3 2-5-2-8-11-7-5-2v-2l14-4 10-5 2-2-1-4-1-3h-2l1-3 9-2 5-6 4-1-2-15-1-3v-10l3-16 12-17 3-6 3-2 1 5v-6l4-1 2 2 2 5 3 3 6 1-1-4 4 1 4-1 2-4 5-1h2l3-3 8 1 3-1 4 3 3-1 2-5 8-6z"/>
        <path transform="translate(1601,336)" d="m0 0h14l10 5 4 5 7 4 3 3 4-2 24-3 9-1 13 4h10l8-4 7-1 5 3v6l9 1 5 1 18 8 9 8 4 7v17l-1 5v10l3 21v17l-4 16-7 12-2 2-7-1-11 9h-9l-2 11-1 4-5-2-8-5-4-4-5-2-7-7-10-4-11 1h-8l-3 7-3-4v-2l-8 5-17 2-1-1-2 6-4-2h-4l-6 2-9 5h-3l-10-4-12 1-5-1-2 6-4-1-1-3-8 5-8 4-7 8-4-2-2-6-5-2-2-2v-4l-6-1-7-4-3-3-7-3h-9l-7 1h-3l-2 5-4-2-6-4-2-6-5 1-15-4-9-5-1-8 1-3-6-1-2-2v-32l3-6 1-4-3-8-4-12 1-10 4-13 7-6 8-4 11-8h2l1-6 3-1 2 6 4-3 1-5 4-1 5 3 1 2 3 1 5 5h2l3-4 6 2v2h4l1-4 5 1 8-3 5-4 7 2 9-5 8 3 10-2 8 4 5-2 9-5 5-2 1 3h2l-1-4z"/>
        <path transform="translate(1342,820)" d="m0 0h15l7 4 5 6 5 3 11-1 14-2 5-2 7 1 11 4 7-1 8-4h8l2 8 6 2 8 3 14 8 6 8 3 6v16l-2 8 1 13 1 25-2 15-3 11-4 8-2 2h-6l-5 5-5 4-6-1 1 3-3 5-1 7-3 1-2-4-5-2-3-6-9-5v-2l-10-5h-5l-8 2v-2l-3 3-2 4-2-1v-3l-4 1-3 3-16 2-1 5-4-1h-4l-4 3-5 3-5-1-6-3-5 1h-11v5h-4l-4-1-4 4-7 4-5 8-3-1-3-7-5-4-1-3-10-5-5-5-4-2h-7l-10 1-1 4-6-1v-2l-3-1-1-5-12-3-10-4-4-3-1-4v-7l-5-2-2-4 1-26 2-9 1-5-2-4-1-10-1-1v-11l5-17 7-6 8-7 5-6 3-5 2 1v4l5-2 1-6 5 1v2h2l5 5 2 3 3 1 1-5h3v3l5 2 1-3 7-2 6-4 4-1 4 1 6-4 4 1 1 1h7v-2l5 1 6 3 4-2 3-3 10-6z"/>
        </g>
    </svg>